Ostrich Bold.ufo
<glyph name="dollar" format="1">
  <advance width="356"/>
  <unicode hex="0024"/>
  <outline>
    <contour>
      <point x="204" y="739" type="line"/>
      <point x="204" y="684" type="line"/>
      <point x="239" y="673"/>
      <point x="260" y="655"/>
      <point x="275" y="638" type="curve"/>
      <point x="300" y="605"/>
      <point x="313" y="561"/>
      <point x="313" y="504" type="curve" smooth="yes"/>
      <point x="313" y="457" type="line"/>
      <point x="277" y="457" type="line"/>
      <point x="277" y="504" type="line" smooth="yes"/>
      <point x="277" y="603"/>
      <point x="237" y="650"/>
      <point x="168" y="654" type="curve"/>
      <point x="168" y="739" type="line"/>
    </contour>
    <contour>
      <point x="110" y="337"/>
      <point x="98" y="344"/>
      <point x="85" y="351" type="curve" smooth="yes"/>
      <point x="72" y="358"/>
      <point x="59" y="369"/>
      <point x="46" y="382" type="curve" smooth="yes"/>
      <point x="15" y="415"/>
      <point x="0" y="455"/>
      <point x="0" y="504" type="curve" smooth="yes"/>
      <point x="0" y="555"/>
      <point x="13" y="597"/>
      <point x="36" y="630" type="curve" smooth="yes"/>
      <point x="54" y="655"/>
      <point x="78" y="672"/>
      <point x="109" y="683" type="curve"/>
      <point x="109" y="739" type="line"/>
      <point x="144" y="739" type="line"/>
      <point x="144" y="654" type="line"/>
      <point x="112" y="651"/>
      <point x="84" y="636"/>
      <point x="65" y="609" type="curve" smooth="yes"/>
      <point x="46" y="582"/>
      <point x="35" y="547"/>
      <point x="35" y="504" type="curve" smooth="yes"/>
      <point x="35" y="465"/>
      <point x="47" y="433"/>
      <point x="72" y="406" type="curve" smooth="yes"/>
      <point x="92" y="385"/>
      <point x="116" y="373"/>
      <point x="135" y="364" type="curve"/>
      <point x="142" y="361"/>
      <point x="146" y="359"/>
      <point x="150" y="356" type="curve"/>
      <point x="155" y="353"/>
      <point x="161" y="350"/>
      <point x="168" y="347" type="curve"/>
      <point x="185" y="339"/>
      <point x="206" y="330"/>
      <point x="223" y="312" type="curve" smooth="yes"/>
      <point x="240" y="294"/>
      <point x="253" y="268"/>
      <point x="253" y="231" type="curve" smooth="yes"/>
      <point x="253" y="155"/>
      <point x="217" y="109"/>
      <point x="156" y="109" type="curve" smooth="yes"/>
      <point x="92" y="109"/>
      <point x="59" y="146"/>
      <point x="59" y="235" type="curve" smooth="yes"/>
      <point x="59" y="283" type="line"/>
      <point x="94" y="283" type="line"/>
      <point x="94" y="235" type="line" smooth="yes"/>
      <point x="94" y="200"/>
      <point x="100" y="175"/>
      <point x="112" y="161" type="curve"/>
      <point x="115" y="158"/>
      <point x="119" y="154"/>
      <point x="126" y="150" type="curve"/>
      <point x="132" y="146"/>
      <point x="142" y="144"/>
      <point x="156" y="144" type="curve" smooth="yes"/>
      <point x="183" y="144"/>
      <point x="199" y="158"/>
      <point x="208" y="176" type="curve"/>
      <point x="216" y="194"/>
      <point x="218" y="215"/>
      <point x="218" y="231" type="curve" smooth="yes"/>
      <point x="218" y="256"/>
      <point x="211" y="273"/>
      <point x="200" y="285" type="curve"/>
      <point x="188" y="297"/>
      <point x="172" y="306"/>
      <point x="153" y="315" type="curve"/>
      <point x="144" y="318"/>
      <point x="137" y="322"/>
      <point x="132" y="325" type="curve"/>
      <point x="131" y="326"/>
      <point x="129" y="328"/>
      <point x="127" y="329" type="curve"/>
      <point x="124" y="330"/>
      <point x="122" y="331"/>
      <point x="119" y="332" type="curve"/>
    </contour>
    <contour>
      <point x="209" y="393"/>
      <point x="241" y="379"/>
      <point x="266" y="353" type="curve" smooth="yes"/>
      <point x="291" y="327"/>
      <point x="313" y="288"/>
      <point x="313" y="231" type="curve" smooth="yes"/>
      <point x="313" y="131"/>
      <point x="261" y="73"/>
      <point x="204" y="57" type="curve"/>
      <point x="204" y="0" type="line"/>
      <point x="168" y="0" type="line"/>
      <point x="168" y="86" type="line"/>
      <point x="233" y="90"/>
      <point x="277" y="146"/>
      <point x="277" y="231" type="curve" smooth="yes"/>
      <point x="277" y="276"/>
      <point x="261" y="307"/>
      <point x="241" y="328" type="curve"/>
      <point x="220" y="348"/>
      <point x="195" y="360"/>
      <point x="178" y="368" type="curve"/>
      <point x="171" y="371"/>
      <point x="166" y="373"/>
      <point x="162" y="376" type="curve"/>
      <point x="160" y="377"/>
      <point x="158" y="379"/>
      <point x="155" y="380" type="curve" smooth="yes"/>
      <point x="152" y="381"/>
      <point x="149" y="383"/>
      <point x="146" y="385" type="curve"/>
      <point x="129" y="393"/>
      <point x="106" y="405"/>
      <point x="89" y="423" type="curve" smooth="yes"/>
      <point x="72" y="441"/>
      <point x="59" y="465"/>
      <point x="59" y="504" type="curve" smooth="yes"/>
      <point x="59" y="580"/>
      <point x="93" y="631"/>
      <point x="156" y="631" type="curve" smooth="yes"/>
      <point x="221" y="631"/>
      <point x="253" y="591"/>
      <point x="253" y="504" type="curve" smooth="yes"/>
      <point x="253" y="457" type="line"/>
      <point x="218" y="457" type="line"/>
      <point x="218" y="504" type="line" smooth="yes"/>
      <point x="218" y="539"/>
      <point x="212" y="564"/>
      <point x="201" y="579" type="curve"/>
      <point x="194" y="586"/>
      <point x="184" y="595"/>
      <point x="156" y="595" type="curve" smooth="yes"/>
      <point x="128" y="595"/>
      <point x="112" y="578"/>
      <point x="104" y="558" type="curve"/>
      <point x="95" y="538"/>
      <point x="94" y="515"/>
      <point x="94" y="504" type="curve" smooth="yes"/>
      <point x="94" y="479"/>
      <point x="101" y="462"/>
      <point x="113" y="449" type="curve" smooth="yes"/>
      <point x="125" y="436"/>
      <point x="142" y="425"/>
      <point x="162" y="416" type="curve" smooth="yes"/>
      <point x="169" y="413"/>
      <point x="175" y="410"/>
      <point x="180" y="406" type="curve"/>
      <point x="184" y="405"/>
      <point x="188" y="403"/>
      <point x="192" y="401" type="curve" smooth="yes"/>
    </contour>
    <contour>
      <point x="109" y="0" type="line"/>
      <point x="109" y="56" type="line"/>
      <point x="74" y="65"/>
      <point x="51" y="85"/>
      <point x="38" y="102" type="curve" smooth="yes"/>
      <point x="13" y="133"/>
      <point x="0" y="178"/>
      <point x="0" y="235" type="curve" smooth="yes"/>
      <point x="0" y="283" type="line"/>
      <point x="35" y="283" type="line"/>
      <point x="35" y="235" type="line" smooth="yes"/>
      <point x="35" y="139"/>
      <point x="77" y="90"/>
      <point x="144" y="86" type="curve"/>
      <point x="144" y="0" type="line"/>
    </contour>
  </outline>
</glyph>
<glyph name="percent" format="1">
  <advance width="615"/>
  <unicode hex="0025"/>
  <outline>
    <contour>
      <point x="493" y="304"/>
      <point x="507" y="271"/>
      <point x="507" y="240" type="curve" smooth="yes"/>
      <point x="507" y="154" type="line" smooth="yes"/>
      <point x="507" y="123"/>
      <point x="493" y="90"/>
      <point x="453" y="90" type="curve" smooth="yes"/>
      <point x="433" y="90"/>
      <point x="419" y="99"/>
      <point x="411" y="111" type="curve"/>
      <point x="402" y="123"/>
      <point x="398" y="139"/>
      <point x="398" y="154" type="curve" smooth="yes"/>
      <point x="398" y="240" type="line" smooth="yes"/>
      <point x="398" y="255"/>
      <point x="402" y="271"/>
      <point x="411" y="283" type="curve"/>
      <point x="419" y="295"/>
      <point x="433" y="304"/>
      <point x="453" y="304" type="curve" smooth="yes"/>
    </contour>
    <contour>
      <point x="472" y="240" type="line" smooth="yes"/>
      <point x="472" y="259"/>
      <point x="466" y="269"/>
      <point x="453" y="269" type="curve" smooth="yes"/>
      <point x="440" y="269"/>
      <point x="434" y="259"/>
      <point x="434" y="240" type="curve" smooth="yes"/>
      <point x="434" y="154" type="line" smooth="yes"/>
      <point x="434" y="135"/>
      <point x="440" y="125"/>
      <point x="453" y="125" type="curve" smooth="yes"/>
      <point x="466" y="125"/>
      <point x="472" y="135"/>
      <point x="472" y="154" type="curve" smooth="yes"/>
    </contour>
    <contour>
      <point x="485" y="363"/>
      <point x="514" y="351"/>
      <point x="534" y="329" type="curve" smooth="yes"/>
      <point x="554" y="307"/>
      <point x="566" y="276"/>
      <point x="566" y="240" type="curve" smooth="yes"/>
      <point x="566" y="154" type="line" smooth="yes"/>
      <point x="566" y="118"/>
      <point x="554" y="88"/>
      <point x="534" y="66" type="curve" smooth="yes"/>
      <point x="514" y="44"/>
      <point x="485" y="31"/>
      <point x="453" y="31" type="curve" smooth="yes"/>
      <point x="386" y="31"/>
      <point x="339" y="82"/>
      <point x="339" y="154" type="curve" smooth="yes"/>
      <point x="339" y="240" type="line" smooth="yes"/>
      <point x="339" y="312"/>
      <point x="386" y="363"/>
      <point x="453" y="363" type="curve" smooth="yes"/>
    </contour>
    <contour>
      <point x="531" y="240" type="line" smooth="yes"/>
      <point x="531" y="289"/>
      <point x="501" y="328"/>
      <point x="453" y="328" type="curve" smooth="yes"/>
      <point x="428" y="328"/>
      <point x="409" y="319"/>
      <point x="394" y="300" type="curve"/>
      <point x="381" y="285"/>
      <point x="375" y="263"/>
      <point x="375" y="240" type="curve" smooth="yes"/>
      <point x="375" y="154" type="line" smooth="yes"/>
      <point x="375" y="131"/>
      <point x="381" y="109"/>
      <point x="394" y="93" type="curve" smooth="yes"/>
      <point x="409" y="75"/>
      <point x="428" y="66"/>
      <point x="453" y="66" type="curve" smooth="yes"/>
      <point x="501" y="66"/>
      <point x="531" y="106"/>
      <point x="531" y="154" type="curve" smooth="yes"/>
    </contour>
    <contour>
      <point x="168" y="499" type="line" smooth="yes"/>
      <point x="168" y="484"/>
      <point x="164" y="468"/>
      <point x="156" y="456" type="curve"/>
      <point x="147" y="444"/>
      <point x="133" y="435"/>
      <point x="113" y="435" type="curve" smooth="yes"/>
      <point x="73" y="435"/>
      <point x="59" y="468"/>
      <point x="59" y="499" type="curve" smooth="yes"/>
      <point x="59" y="585" type="line" smooth="yes"/>
      <point x="59" y="616"/>
      <point x="73" y="649"/>
      <point x="113" y="649" type="curve" smooth="yes"/>
      <point x="133" y="649"/>
      <point x="147" y="640"/>
      <point x="156" y="628" type="curve"/>
      <point x="164" y="616"/>
      <point x="168" y="600"/>
      <point x="168" y="585" type="curve" smooth="yes"/>
    </contour>
    <contour>
      <point x="94" y="499" type="line" smooth="yes"/>
      <point x="94" y="480"/>
      <point x="100" y="470"/>
      <point x="113" y="470" type="curve" smooth="yes"/>
      <point x="126" y="470"/>
      <point x="132" y="480"/>
      <point x="132" y="499" type="curve" smooth="yes"/>
      <point x="132" y="585" type="line" smooth="yes"/>
      <point x="132" y="604"/>
      <point x="126" y="614"/>
      <point x="113" y="614" type="curve" smooth="yes"/>
      <point x="100" y="614"/>
      <point x="94" y="604"/>
      <point x="94" y="585" type="curve" smooth="yes"/>
    </contour>
    <contour>
      <point x="227" y="499" type="line" smooth="yes"/>
      <point x="227" y="463"/>
      <point x="215" y="433"/>
      <point x="195" y="411" type="curve" smooth="yes"/>
      <point x="175" y="389"/>
      <point x="146" y="376"/>
      <point x="113" y="376" type="curve" smooth="yes"/>
      <point x="48" y="376"/>
      <point x="0" y="427"/>
      <point x="0" y="499" type="curve" smooth="yes"/>
      <point x="0" y="585" type="line" smooth="yes"/>
      <point x="0" y="621"/>
      <point x="12" y="652"/>
      <point x="32" y="674" type="curve" smooth="yes"/>
      <point x="52" y="696"/>
      <point x="81" y="708"/>
      <point x="113" y="708" type="curve" smooth="yes"/>
      <point x="180" y="708"/>
      <point x="227" y="657"/>
      <point x="227" y="585" type="curve" smooth="yes"/>
    </contour>
    <contour>
      <point x="70" y="420"/>
      <point x="89" y="411"/>
      <point x="113" y="411" type="curve" smooth="yes"/>
      <point x="162" y="411"/>
      <point x="191" y="448"/>
      <point x="191" y="499" type="curve" smooth="yes"/>
      <point x="191" y="585" type="line" smooth="yes"/>
      <point x="191" y="608"/>
      <point x="185" y="630"/>
      <point x="172" y="645" type="curve"/>
      <point x="157" y="664"/>
      <point x="138" y="673"/>
      <point x="113" y="673" type="curve" smooth="yes"/>
      <point x="65" y="673"/>
      <point x="35" y="634"/>
      <point x="35" y="585" type="curve" smooth="yes"/>
      <point x="35" y="499" type="line" smooth="yes"/>
      <point x="35" y="475"/>
      <point x="42" y="455"/>
      <point x="55" y="438" type="curve"/>
    </contour>
    <contour>
      <point x="410" y="739" type="line"/>
      <point x="133" y="2" type="line"/>
      <point x="97" y="2" type="line"/>
      <point x="370" y="739" type="line"/>
    </contour>
    <contour>
      <point x="471" y="739" type="line"/>
      <point x="198" y="2" type="line"/>
      <point x="159" y="2" type="line"/>
      <point x="435" y="739" type="line"/>
    </contour>
  </outline>
</glyph>
<glyph name="ampersand" format="1">
  <advance width="506"/>
  <unicode hex="0026"/>
  <outline>
    <contour>
      <point x="59" y="236"/>
      <point x="68" y="264"/>
      <point x="84" y="287" type="curve" smooth="yes"/>
      <point x="100" y="310"/>
      <point x="121" y="328"/>
      <point x="145" y="348" type="curve" smooth="yes"/>
      <point x="151" y="353"/>
      <point x="157" y="359"/>
      <point x="163" y="364" type="curve"/>
      <point x="168" y="369"/>
      <point x="174" y="374"/>
      <point x="180" y="379" type="curve"/>
      <point x="322" y="135" type="line"/>
      <point x="295" y="86"/>
      <point x="248" y="61"/>
      <point x="183" y="61" type="curve" smooth="yes"/>
      <point x="140" y="61"/>
      <point x="109" y="79"/>
      <point x="89" y="105" type="curve" smooth="yes"/>
      <point x="69" y="131"/>
      <point x="59" y="164"/>
      <point x="59" y="199" type="curve" smooth="yes"/>
    </contour>
    <contour>
      <point x="168" y="321" type="line"/>
      <point x="145" y="301"/>
      <point x="126" y="286"/>
      <point x="114" y="268" type="curve"/>
      <point x="101" y="250"/>
      <point x="94" y="228"/>
      <point x="94" y="199" type="curve" smooth="yes"/>
      <point x="94" y="175"/>
      <point x="101" y="149"/>
      <point x="115" y="130" type="curve" smooth="yes"/>
      <point x="129" y="110"/>
      <point x="151" y="96"/>
      <point x="183" y="96" type="curve" smooth="yes"/>
      <point x="226" y="96"/>
      <point x="258" y="109"/>
      <point x="280" y="136" type="curve"/>
      <point x="171" y="324" type="line"/>
    </contour>
    <contour>
      <point x="401" y="2" type="line"/>
      <point x="362" y="2" type="line"/>
      <point x="330" y="52" type="line"/>
      <point x="291" y="19"/>
      <point x="242" y="2"/>
      <point x="183" y="2" type="curve" smooth="yes"/>
      <point x="128" y="2"/>
      <point x="80" y="23"/>
      <point x="47" y="62" type="curve" smooth="yes"/>
      <point x="16" y="99"/>
      <point x="0" y="145"/>
      <point x="0" y="199" type="curve" smooth="yes"/>
      <point x="0" y="251"/>
      <point x="14" y="290"/>
      <point x="35" y="320" type="curve" smooth="yes"/>
      <point x="55" y="350"/>
      <point x="82" y="372"/>
      <point x="107" y="393" type="curve" smooth="yes"/>
      <point x="112" y="397"/>
      <point x="117" y="401"/>
      <point x="121" y="405" type="curve"/>
      <point x="109" y="425"/>
      <point x="96" y="451"/>
      <point x="85" y="480" type="curve" smooth="yes"/>
      <point x="74" y="509"/>
      <point x="66" y="539"/>
      <point x="66" y="570" type="curve" smooth="yes"/>
      <point x="66" y="669"/>
      <point x="96" y="739"/>
      <point x="183" y="739" type="curve" smooth="yes"/>
      <point x="230" y="739"/>
      <point x="264" y="717"/>
      <point x="283" y="674" type="curve" smooth="yes"/>
      <point x="298" y="642"/>
      <point x="299" y="602"/>
      <point x="299" y="570" type="curve" smooth="yes"/>
      <point x="299" y="514"/>
      <point x="285" y="460"/>
      <point x="258" y="416" type="curve" smooth="yes"/>
      <point x="251" y="405"/>
      <point x="246" y="398"/>
      <point x="241" y="391" type="curve"/>
      <point x="320" y="257" type="line"/>
      <point x="321" y="268"/>
      <point x="322" y="280"/>
      <point x="322" y="291" type="curve" smooth="yes"/>
      <point x="322" y="302"/>
      <point x="322" y="312"/>
      <point x="322" y="321" type="curve" smooth="yes"/>
      <point x="322" y="369" type="line"/>
      <point x="358" y="369" type="line"/>
      <point x="358" y="321" type="line" smooth="yes"/>
      <point x="358" y="277"/>
      <point x="355" y="214"/>
      <point x="334" y="161" type="curve"/>
      <point x="198" y="395" type="line"/>
      <point x="207" y="404"/>
      <point x="224" y="424"/>
      <point x="238" y="453" type="curve" smooth="yes"/>
      <point x="252" y="481"/>
      <point x="264" y="521"/>
      <point x="264" y="570" type="curve" smooth="yes"/>
      <point x="264" y="598"/>
      <point x="262" y="633"/>
      <point x="250" y="660" type="curve" smooth="yes"/>
      <point x="238" y="689"/>
      <point x="216" y="703"/>
      <point x="183" y="703" type="curve" smooth="yes"/>
      <point x="154" y="703"/>
      <point x="132" y="691"/>
      <point x="118" y="667" type="curve"/>
      <point x="107" y="646"/>
      <point x="102" y="613"/>
      <point x="102" y="570" type="curve" smooth="yes"/>
      <point x="102" y="537"/>
      <point x="115" y="500"/>
      <point x="129" y="469" type="curve" smooth="yes"/>
      <point x="143" y="438"/>
      <point x="159" y="412"/>
      <point x="167" y="399" type="curve"/>
      <point x="161" y="393"/>
      <point x="155" y="387"/>
      <point x="149" y="382" type="curve"/>
      <point x="142" y="377"/>
      <point x="136" y="371"/>
      <point x="130" y="366" type="curve" smooth="yes"/>
      <point x="106" y="346"/>
      <point x="81" y="326"/>
      <point x="64" y="300" type="curve" smooth="yes"/>
      <point x="47" y="274"/>
      <point x="35" y="243"/>
      <point x="35" y="199" type="curve" smooth="yes"/>
      <point x="35" y="155"/>
      <point x="49" y="114"/>
      <point x="74" y="85" type="curve" smooth="yes"/>
      <point x="102" y="53"/>
      <point x="138" y="37"/>
      <point x="183" y="37" type="curve" smooth="yes"/>
      <point x="251" y="37"/>
      <point x="302" y="62"/>
      <point x="336" y="112" type="curve"/>
      <point x="376" y="43" type="line"/>
    </contour>
    <contour>
      <point x="417" y="321" type="line" smooth="yes"/>
      <point x="417" y="272"/>
      <point x="414" y="201"/>
      <point x="389" y="138" type="curve"/>
      <point x="474" y="2" type="line"/>
      <point x="429" y="2" type="line"/>
      <point x="396" y="55" type="line"/>
      <point x="349" y="136" type="line"/>
      <point x="349" y="136"/>
      <point x="350" y="137"/>
      <point x="351" y="140" type="curve"/>
      <point x="378" y="200"/>
      <point x="381" y="272"/>
      <point x="381" y="321" type="curve" smooth="yes"/>
      <point x="381" y="369" type="line"/>
      <point x="417" y="369" type="line"/>
    </contour>
    <contour>
      <point x="224" y="680"/>
      <point x="240" y="650"/>
      <point x="240" y="570" type="curve" smooth="yes"/>
      <point x="240" y="527"/>
      <point x="231" y="494"/>
      <point x="219" y="469" type="curve" smooth="yes"/>
      <point x="207" y="444"/>
      <point x="193" y="425"/>
      <point x="184" y="416" type="curve"/>
      <point x="176" y="429"/>
      <point x="161" y="454"/>
      <point x="149" y="482" type="curve" smooth="yes"/>
      <point x="136" y="510"/>
      <point x="125" y="542"/>
      <point x="125" y="570" type="curve" smooth="yes"/>
      <point x="125" y="618"/>
      <point x="132" y="646"/>
      <point x="143" y="662" type="curve" smooth="yes"/>
      <point x="154" y="677"/>
      <point x="168" y="680"/>
      <point x="183" y="680" type="curve" smooth="yes"/>
    </contour>
    <contour>
      <point x="196" y="506"/>
      <point x="204" y="534"/>
      <point x="204" y="570" type="curve" smooth="yes"/>
      <point x="204" y="573"/>
      <point x="204" y="577"/>
      <point x="204" y="583" type="curve" smooth="yes"/>
      <point x="204" y="594"/>
      <point x="203" y="607"/>
      <point x="201" y="620" type="curve" smooth="yes"/>
      <point x="200" y="626"/>
      <point x="198" y="631"/>
      <point x="196" y="636" type="curve" smooth="yes"/>
      <point x="193" y="643"/>
      <point x="192" y="644"/>
      <point x="183" y="644" type="curve" smooth="yes"/>
      <point x="174" y="644"/>
      <point x="174" y="643"/>
      <point x="171" y="639" type="curve"/>
      <point x="168" y="634"/>
      <point x="166" y="627"/>
      <point x="164" y="617" type="curve" smooth="yes"/>
      <point x="162" y="607"/>
      <point x="161" y="591"/>
      <point x="161" y="570" type="curve" smooth="yes"/>
      <point x="161" y="543"/>
      <point x="172" y="511"/>
      <point x="187" y="483" type="curve"/>
    </contour>
  </outline>
</glyph>
<glyph name="quotesingle" format="1">
  <advance width="158"/>
  <unicode hex="0027"/>
  <outline>
    <contour>
      <point x="0" y="739" type="line"/>
      <point x="94" y="739" type="line"/>
      <point x="94" y="588" type="line"/>
      <point x="0" y="588" type="line"/>
    </contour>
    <contour>
      <point x="35" y="623" type="line"/>
      <point x="59" y="623" type="line"/>
      <point x="59" y="703" type="line"/>
      <point x="35" y="703" type="line"/>
    </contour>
  </outline>
</glyph>
<glyph name="asterisk" format="1">
  <advance width="368"/>
  <unicode hex="002A"/>
  <outline>
    <contour>
      <point x="176" y="738" type="line"/>
      <point x="211" y="738" type="line"/>
      <point x="211" y="648" type="line"/>
      <point x="295" y="679" type="line"/>
      <point x="307" y="647" type="line"/>
      <point x="176" y="597" type="line"/>
    </contour>
    <contour>
      <point x="152" y="597" type="line"/>
      <point x="21" y="646" type="line"/>
      <point x="33" y="679" type="line"/>
      <point x="117" y="648" type="line"/>
      <point x="117" y="738" type="line"/>
      <point x="152" y="738" type="line"/>
    </contour>
    <contour>
      <point x="184" y="575" type="line"/>
      <point x="315" y="625" type="line"/>
      <point x="328" y="591" type="line"/>
      <point x="245" y="560" type="line"/>
      <point x="308" y="488" type="line"/>
      <point x="281" y="465" type="line"/>
    </contour>
    <contour>
      <point x="20" y="488" type="line"/>
      <point x="83" y="560" type="line"/>
      <point x="0" y="591" type="line"/>
      <point x="12" y="624" type="line"/>
      <point x="144" y="575" type="line"/>
      <point x="48" y="464" type="line"/>
    </contour>
    <contour>
      <point x="164" y="562" type="line"/>
      <point x="263" y="449" type="line"/>
      <point x="237" y="426" type="line"/>
      <point x="164" y="508" type="line"/>
      <point x="91" y="426" type="line"/>
      <point x="65" y="449" type="line"/>
    </contour>
  </outline>
</glyph>
<glyph name="slash" format="1">
  <advance width="417"/>
  <unicode hex="002F"/>
  <outline>
    <contour>
      <point x="313" y="739" type="line"/>
      <point x="37" y="2" type="line"/>
      <point x="0" y="2" type="line"/>
      <point x="273" y="739" type="line"/>
    </contour>
    <contour>
      <point x="338" y="739" type="line"/>
      <point x="374" y="739" type="line"/>
      <point x="101" y="2" type="line"/>
      <point x="62" y="2" type="line"/>
    </contour>
  </outline>
</glyph>
<glyph name="two" format="1">
  <advance width="360"/>
  <unicode hex="0032"/>
  <outline>
    <contour>
      <point x="35" y="491" type="line"/>
      <point x="0" y="491" type="line"/>
      <point x="0" y="538" type="line" smooth="yes"/>
      <point x="0" y="599"/>
      <point x="12" y="646"/>
      <point x="37" y="679" type="curve" smooth="yes"/>
      <point x="56" y="704"/>
      <point x="92" y="735"/>
      <point x="156" y="735" type="curve" smooth="yes"/>
      <point x="201" y="735"/>
      <point x="240" y="716"/>
      <point x="267" y="684" type="curve" smooth="yes"/>
      <point x="294" y="651"/>
      <point x="311" y="603"/>
      <point x="312" y="547" type="curve"/>
      <point x="313" y="547" type="line"/>
      <point x="313" y="538" type="line"/>
      <point x="312" y="538" type="line"/>
      <point x="311" y="491"/>
      <point x="301" y="456"/>
      <point x="286" y="425" type="curve" smooth="yes"/>
      <point x="271" y="393"/>
      <point x="252" y="367"/>
      <point x="232" y="340" type="curve"/>
      <point x="220" y="325"/>
      <point x="208" y="309"/>
      <point x="196" y="290" type="curve" smooth="yes"/>
      <point x="168" y="247"/>
      <point x="145" y="214"/>
      <point x="129" y="183" type="curve" smooth="yes"/>
      <point x="113" y="151"/>
      <point x="103" y="124"/>
      <point x="98" y="92" type="curve"/>
      <point x="156" y="92" type="line"/>
      <point x="265" y="92" type="line"/>
      <point x="313" y="92" type="line"/>
      <point x="313" y="57" type="line"/>
      <point x="59" y="57" type="line"/>
      <point x="60" y="105"/>
      <point x="72" y="144"/>
      <point x="90" y="183" type="curve" smooth="yes"/>
      <point x="108" y="222"/>
      <point x="134" y="261"/>
      <point x="166" y="309" type="curve" smooth="yes"/>
      <point x="173" y="319"/>
      <point x="179" y="328"/>
      <point x="185" y="337" type="curve"/>
      <point x="191" y="345"/>
      <point x="197" y="353"/>
      <point x="203" y="362" type="curve"/>
      <point x="223" y="389"/>
      <point x="241" y="412"/>
      <point x="254" y="440" type="curve" smooth="yes"/>
      <point x="267" y="467"/>
      <point x="276" y="498"/>
      <point x="277" y="538" type="curve" smooth="yes"/>
      <point x="277" y="547" type="line"/>
      <point x="274" y="631"/>
      <point x="235" y="699"/>
      <point x="156" y="699" type="curve" smooth="yes"/>
      <point x="77" y="699"/>
      <point x="35" y="643"/>
      <point x="35" y="538" type="curve" smooth="yes"/>
    </contour>
    <contour>
      <point x="313" y="33" type="line"/>
      <point x="313" y="-2" type="line"/>
      <point x="265" y="-2" type="line"/>
      <point x="156" y="-2" type="line"/>
      <point x="0" y="-2" type="line"/>
      <point x="0" y="45" type="line" smooth="yes"/>
      <point x="0" y="105"/>
      <point x="12" y="155"/>
      <point x="33" y="201" type="curve" smooth="yes"/>
      <point x="54" y="247"/>
      <point x="82" y="291"/>
      <point x="117" y="342" type="curve" smooth="yes"/>
      <point x="132" y="363"/>
      <point x="144" y="381"/>
      <point x="156" y="397" type="curve" smooth="yes"/>
      <point x="175" y="422"/>
      <point x="190" y="443"/>
      <point x="201" y="465" type="curve" smooth="yes"/>
      <point x="212" y="487"/>
      <point x="218" y="510"/>
      <point x="218" y="542" type="curve" smooth="yes"/>
      <point x="218" y="554"/>
      <point x="216" y="578"/>
      <point x="208" y="600" type="curve"/>
      <point x="199" y="622"/>
      <point x="184" y="640"/>
      <point x="156" y="640" type="curve" smooth="yes"/>
      <point x="145" y="640"/>
      <point x="130" y="640"/>
      <point x="117" y="628" type="curve"/>
      <point x="104" y="615"/>
      <point x="94" y="589"/>
      <point x="94" y="538" type="curve" smooth="yes"/>
      <point x="94" y="491" type="line"/>
      <point x="59" y="491" type="line"/>
      <point x="59" y="538" type="line" smooth="yes"/>
      <point x="59" y="631"/>
      <point x="92" y="676"/>
      <point x="156" y="676" type="curve" smooth="yes"/>
      <point x="217" y="676"/>
      <point x="253" y="621"/>
      <point x="253" y="542" type="curve" smooth="yes"/>
      <point x="253" y="503"/>
      <point x="245" y="475"/>
      <point x="233" y="450" type="curve" smooth="yes"/>
      <point x="221" y="425"/>
      <point x="205" y="401"/>
      <point x="185" y="376" type="curve" smooth="yes"/>
      <point x="178" y="367"/>
      <point x="172" y="359"/>
      <point x="166" y="350" type="curve" smooth="yes"/>
      <point x="160" y="341"/>
      <point x="153" y="332"/>
      <point x="146" y="323" type="curve"/>
      <point x="113" y="272"/>
      <point x="85" y="231"/>
      <point x="66" y="188" type="curve" smooth="yes"/>
      <point x="46" y="144"/>
      <point x="35" y="101"/>
      <point x="35" y="45" type="curve" smooth="yes"/>
      <point x="35" y="33" type="line"/>
      <point x="156" y="33" type="line"/>
    </contour>
  </outline>
</glyph>
<glyph name="three" format="1">
  <advance width="360"/>
  <unicode hex="0033"/>
  <outline>
    <contour>
      <point x="250" y="361" type="line"/>
      <point x="279" y="334"/>
      <point x="313" y="284"/>
      <point x="313" y="203" type="curve" smooth="yes"/>
      <point x="313" y="148"/>
      <point x="301" y="101"/>
      <point x="278" y="65" type="curve" smooth="yes"/>
      <point x="250" y="22"/>
      <point x="207" y="-2"/>
      <point x="156" y="-2" type="curve" smooth="yes"/>
      <point x="103" y="-2"/>
      <point x="63" y="19"/>
      <point x="35" y="60" type="curve" smooth="yes"/>
      <point x="12" y="96"/>
      <point x="0" y="144"/>
      <point x="0" y="208" type="curve" smooth="yes"/>
      <point x="0" y="255" type="line"/>
      <point x="35" y="255" type="line"/>
      <point x="35" y="208" type="line" smooth="yes"/>
      <point x="35" y="136"/>
      <point x="51" y="91"/>
      <point x="75" y="66" type="curve" smooth="yes"/>
      <point x="98" y="41"/>
      <point x="128" y="33"/>
      <point x="156" y="33" type="curve" smooth="yes"/>
      <point x="231" y="33"/>
      <point x="277" y="99"/>
      <point x="277" y="203" type="curve" smooth="yes"/>
      <point x="277" y="271"/>
      <point x="249" y="313"/>
      <point x="225" y="336" type="curve" smooth="yes"/>
      <point x="212" y="349"/>
      <point x="197" y="358"/>
      <point x="181" y="365" type="curve"/>
      <point x="216" y="382"/>
      <point x="237" y="402"/>
      <point x="260" y="445" type="curve" smooth="yes"/>
      <point x="271" y="466"/>
      <point x="277" y="494"/>
      <point x="277" y="529" type="curve" smooth="yes"/>
      <point x="277" y="633"/>
      <point x="231" y="699"/>
      <point x="156" y="699" type="curve" smooth="yes"/>
      <point x="115" y="699"/>
      <point x="84" y="683"/>
      <point x="65" y="652" type="curve"/>
      <point x="45" y="623"/>
      <point x="35" y="580"/>
      <point x="35" y="524" type="curve" smooth="yes"/>
      <point x="35" y="477" type="line"/>
      <point x="0" y="477" type="line"/>
      <point x="0" y="524" type="line" smooth="yes"/>
      <point x="0" y="651"/>
      <point x="52" y="735"/>
      <point x="156" y="735" type="curve" smooth="yes"/>
      <point x="261" y="735"/>
      <point x="313" y="638"/>
      <point x="313" y="529" type="curve" smooth="yes"/>
      <point x="313" y="448"/>
      <point x="279" y="398"/>
      <point x="250" y="370" type="curve" smooth="yes"/>
      <point x="249" y="369"/>
      <point x="248" y="369"/>
      <point x="248" y="368" type="curve"/>
      <point x="247" y="367"/>
      <point x="246" y="367"/>
      <point x="245" y="366" type="curve"/>
    </contour>
    <contour>
      <point x="253" y="477"/>
      <point x="235" y="439"/>
      <point x="211" y="414" type="curve" smooth="yes"/>
      <point x="186" y="389"/>
      <point x="155" y="377"/>
      <point x="130" y="377" type="curve" smooth="yes"/>
      <point x="85" y="377" type="line"/>
      <point x="85" y="413" type="line"/>
      <point x="130" y="413" type="line" smooth="yes"/>
      <point x="143" y="413"/>
      <point x="167" y="421"/>
      <point x="185" y="439" type="curve" smooth="yes"/>
      <point x="203" y="457"/>
      <point x="218" y="485"/>
      <point x="218" y="529" type="curve" smooth="yes"/>
      <point x="218" y="532"/>
      <point x="218" y="539"/>
      <point x="217" y="551" type="curve" smooth="yes"/>
      <point x="215" y="575"/>
      <point x="207" y="603"/>
      <point x="191" y="624" type="curve" smooth="yes"/>
      <point x="182" y="635"/>
      <point x="171" y="640"/>
      <point x="156" y="640" type="curve" smooth="yes"/>
      <point x="148" y="640"/>
      <point x="132" y="640"/>
      <point x="119" y="626" type="curve"/>
      <point x="112" y="619"/>
      <point x="107" y="607"/>
      <point x="102" y="591" type="curve" smooth="yes"/>
      <point x="97" y="575"/>
      <point x="94" y="553"/>
      <point x="94" y="524" type="curve" smooth="yes"/>
      <point x="94" y="477" type="line"/>
      <point x="59" y="477" type="line"/>
      <point x="59" y="524" type="line" smooth="yes"/>
      <point x="59" y="625"/>
      <point x="91" y="676"/>
      <point x="156" y="676" type="curve" smooth="yes"/>
      <point x="217" y="676"/>
      <point x="253" y="616"/>
      <point x="253" y="529" type="curve" smooth="yes"/>
    </contour>
    <contour>
      <point x="92" y="57"/>
      <point x="59" y="105"/>
      <point x="59" y="208" type="curve" smooth="yes"/>
      <point x="59" y="255" type="line"/>
      <point x="94" y="255" type="line"/>
      <point x="94" y="208" type="line" smooth="yes"/>
      <point x="94" y="180"/>
      <point x="96" y="159"/>
      <point x="101" y="145" type="curve"/>
      <point x="105" y="130"/>
      <point x="109" y="119"/>
      <point x="114" y="112" type="curve"/>
      <point x="121" y="101"/>
      <point x="131" y="92"/>
      <point x="156" y="92" type="curve" smooth="yes"/>
      <point x="185" y="92"/>
      <point x="201" y="115"/>
      <point x="209" y="140" type="curve" smooth="yes"/>
      <point x="217" y="165"/>
      <point x="218" y="194"/>
      <point x="218" y="203" type="curve" smooth="yes"/>
      <point x="218" y="246"/>
      <point x="203" y="275"/>
      <point x="185" y="293" type="curve" smooth="yes"/>
      <point x="167" y="311"/>
      <point x="143" y="318"/>
      <point x="130" y="318" type="curve" smooth="yes"/>
      <point x="114" y="318" type="line"/>
      <point x="85" y="318" type="line"/>
      <point x="85" y="354" type="line"/>
      <point x="118" y="354" type="line"/>
      <point x="130" y="354" type="line" smooth="yes"/>
      <point x="151" y="354"/>
      <point x="182" y="344"/>
      <point x="209" y="319" type="curve"/>
      <point x="229" y="299"/>
      <point x="253" y="263"/>
      <point x="253" y="203" type="curve" smooth="yes"/>
      <point x="253" y="116"/>
      <point x="219" y="57"/>
      <point x="156" y="57" type="curve" smooth="yes"/>
    </contour>
  </outline>
</glyph>
<glyph name="four" format="1">
  <advance width="380"/>
  <unicode hex="0034"/>
  <outline>
    <contour>
      <point x="295" y="735" type="line"/>
      <point x="316" y="735" type="line"/>
      <point x="316" y="-2" type="line"/>
      <point x="281" y="-2" type="line"/>
      <point x="281" y="700" type="line"/>
      <point x="263" y="700" type="line"/>
      <point x="29" y="276" type="line"/>
      <point x="29" y="239" type="line"/>
      <point x="257" y="239" type="line"/>
      <point x="257" y="-2" type="line"/>
      <point x="222" y="-2" type="line"/>
      <point x="222" y="203" type="line"/>
      <point x="0" y="203" type="line"/>
      <point x="0" y="298" type="line"/>
      <point x="230" y="735" type="line"/>
      <point x="243" y="735" type="line"/>
    </contour>
    <contour>
      <point x="58" y="262" type="line"/>
      <point x="58" y="280" type="line"/>
      <point x="257" y="642" type="line"/>
      <point x="257" y="262" type="line"/>
    </contour>
    <contour>
      <point x="222" y="517" type="line"/>
      <point x="108" y="298" type="line"/>
      <point x="222" y="298" type="line"/>
    </contour>
  </outline>
</glyph>
<glyph name="colon" format="1">
  <advance width="146"/>
  <unicode hex="003A"/>
  <outline>
    <contour>
      <point x="0" y="579" type="line"/>
      <point x="94" y="579" type="line"/>
      <point x="94" y="440" type="line"/>
      <point x="0" y="440" type="line"/>
    </contour>
    <contour>
      <point x="59" y="475" type="line"/>
      <point x="59" y="544" type="line"/>
      <point x="35" y="544" type="line"/>
      <point x="35" y="475" type="line"/>
    </contour>
    <contour>
      <point x="0" y="165" type="line"/>
      <point x="0" y="304" type="line"/>
      <point x="94" y="304" type="line"/>
      <point x="94" y="165" type="line"/>
    </contour>
    <contour>
      <point x="35" y="268" type="line"/>
      <point x="35" y="200" type="line"/>
      <point x="59" y="200" type="line"/>
      <point x="59" y="268" type="line"/>
    </contour>
  </outline>
</glyph>
<glyph name="semicolon" format="1">
  <advance width="158"/>
  <unicode hex="003B"/>
  <outline>
    <contour>
      <point x="0" y="579" type="line"/>
      <point x="94" y="579" type="line"/>
      <point x="94" y="440" type="line"/>
      <point x="0" y="440" type="line"/>
    </contour>
    <contour>
      <point x="59" y="475" type="line"/>
      <point x="59" y="544" type="line"/>
      <point x="35" y="544" type="line"/>
      <point x="35" y="475" type="line"/>
    </contour>
    <contour>
      <point x="0" y="208" type="line"/>
      <point x="0" y="304" type="line"/>
      <point x="94" y="304" type="line"/>
      <point x="94" y="113" type="line"/>
    </contour>
    <contour>
      <point x="35" y="268" type="line"/>
      <point x="35" y="219" type="line"/>
      <point x="59" y="196" type="line"/>
      <point x="59" y="268" type="line"/>
    </contour>
  </outline>
</glyph>
<glyph name="equal" format="1">
  <advance width="833"/>
  <unicode hex="003D"/>
  <outline>
    <contour>
      <point x="0" y="492" type="line"/>
      <point x="0" y="527" type="line"/>
      <point x="302" y="527" type="line"/>
      <point x="302" y="492" type="line"/>
    </contour>
    <contour>
      <point x="302" y="433" type="line"/>
      <point x="0" y="433" type="line"/>
      <point x="0" y="468" type="line"/>
      <point x="302" y="468" type="line"/>
    </contour>
    <contour>
      <point x="0" y="272" type="line"/>
      <point x="0" y="307" type="line"/>
      <point x="302" y="307" type="line"/>
      <point x="302" y="272" type="line"/>
    </contour>
    <contour>
      <point x="302" y="213" type="line"/>
      <point x="0" y="213" type="line"/>
      <point x="0" y="248" type="line"/>
      <point x="302" y="248" type="line"/>
    </contour>
  </outline>
</glyph>
<glyph name="question" format="1">
  <advance width="364"/>
  <unicode hex="003F"/>
  <outline>
    <contour>
      <point x="125" y="376"/>
      <point x="130" y="381"/>
      <point x="137" y="388" type="curve" smooth="yes"/>
      <point x="150" y="401"/>
      <point x="171" y="422"/>
      <point x="188" y="447" type="curve" smooth="yes"/>
      <point x="204" y="472"/>
      <point x="217" y="503"/>
      <point x="218" y="539" type="curve" smooth="yes"/>
      <point x="218" y="560"/>
      <point x="213" y="586"/>
      <point x="204" y="607" type="curve" smooth="yes"/>
      <point x="195" y="628"/>
      <point x="180" y="644"/>
      <point x="156" y="644" type="curve" smooth="yes"/>
      <point x="147" y="644"/>
      <point x="131" y="645"/>
      <point x="118" y="631" type="curve" smooth="yes"/>
      <point x="105" y="617"/>
      <point x="94" y="590"/>
      <point x="94" y="535" type="curve" smooth="yes"/>
      <point x="94" y="487" type="line"/>
      <point x="59" y="487" type="line"/>
      <point x="59" y="535" type="line" smooth="yes"/>
      <point x="59" y="632"/>
      <point x="91" y="680"/>
      <point x="156" y="680" type="curve" smooth="yes"/>
      <point x="216" y="680"/>
      <point x="253" y="619"/>
      <point x="253" y="540" type="curve" smooth="yes"/>
      <point x="253" y="497"/>
      <point x="238" y="460"/>
      <point x="219" y="431" type="curve" smooth="yes"/>
      <point x="200" y="402"/>
      <point x="178" y="379"/>
      <point x="162" y="363" type="curve" smooth="yes"/>
      <point x="147" y="348" type="line"/>
      <point x="118" y="313"/>
      <point x="118" y="269"/>
      <point x="118" y="213" type="curve" smooth="yes"/>
      <point x="118" y="164" type="line"/>
      <point x="82" y="164" type="line"/>
      <point x="82" y="213" type="line" smooth="yes"/>
      <point x="82" y="244"/>
      <point x="82" y="271"/>
      <point x="87" y="298" type="curve"/>
      <point x="91" y="325"/>
      <point x="101" y="348"/>
      <point x="120" y="371" type="curve"/>
    </contour>
    <contour>
      <point x="313" y="535" type="line"/>
      <point x="312" y="535" type="line"/>
      <point x="311" y="482"/>
      <point x="292" y="437"/>
      <point x="270" y="401" type="curve" smooth="yes"/>
      <point x="248" y="365"/>
      <point x="221" y="339"/>
      <point x="204" y="322" type="curve" smooth="yes"/>
      <point x="192" y="310" type="line"/>
      <point x="177" y="291"/>
      <point x="177" y="265"/>
      <point x="177" y="213" type="curve" smooth="yes"/>
      <point x="177" y="164" type="line"/>
      <point x="141" y="164" type="line"/>
      <point x="141" y="213" type="line" smooth="yes"/>
      <point x="141" y="266"/>
      <point x="141" y="304"/>
      <point x="165" y="333" type="curve"/>
      <point x="179" y="347" type="line" smooth="yes"/>
      <point x="195" y="363"/>
      <point x="218" y="386"/>
      <point x="238" y="418" type="curve" smooth="yes"/>
      <point x="258" y="449"/>
      <point x="274" y="488"/>
      <point x="277" y="535" type="curve"/>
      <point x="277" y="543" type="line"/>
      <point x="276" y="586"/>
      <point x="265" y="623"/>
      <point x="248" y="651" type="curve"/>
      <point x="225" y="686"/>
      <point x="195" y="703"/>
      <point x="156" y="703" type="curve" smooth="yes"/>
      <point x="76" y="703"/>
      <point x="35" y="643"/>
      <point x="35" y="535" type="curve" smooth="yes"/>
      <point x="35" y="487" type="line"/>
      <point x="0" y="487" type="line"/>
      <point x="0" y="535" type="line" smooth="yes"/>
      <point x="0" y="658"/>
      <point x="51" y="739"/>
      <point x="156" y="739" type="curve" smooth="yes"/>
      <point x="207" y="739"/>
      <point x="250" y="715"/>
      <point x="278" y="670" type="curve" smooth="yes"/>
      <point x="300" y="635"/>
      <point x="311" y="592"/>
      <point x="312" y="543" type="curve"/>
      <point x="313" y="543" type="line"/>
    </contour>
    <contour>
      <point x="141" y="108" type="line"/>
      <point x="176" y="108" type="line"/>
      <point x="176" y="2" type="line"/>
      <point x="82" y="2" type="line"/>
      <point x="82" y="108" type="line"/>
      <point x="117" y="108" type="line"/>
      <point x="117" y="37" type="line"/>
      <point x="141" y="37" type="line"/>
    </contour>
  </outline>
</glyph>
<glyph name="at" format="1">
  <advance width="692"/>
  <unicode hex="0040"/>
  <outline>
    <contour>
      <point x="364" y="233"/>
      <point x="376" y="257"/>
      <point x="380" y="280" type="curve" smooth="yes"/>
      <point x="382" y="291"/>
      <point x="384" y="305"/>
      <point x="387" y="321" type="curve"/>
      <point x="391" y="352"/>
      <point x="398" y="390"/>
      <point x="404" y="426" type="curve" smooth="yes"/>
      <point x="410" y="462"/>
      <point x="415" y="494"/>
      <point x="419" y="517" type="curve"/>
      <point x="454" y="511" type="line"/>
      <point x="446" y="465" type="line"/>
      <point x="446" y="464"/>
      <point x="445" y="455"/>
      <point x="442" y="438" type="curve" smooth="yes"/>
      <point x="439" y="421"/>
      <point x="435" y="401"/>
      <point x="432" y="378" type="curve"/>
      <point x="424" y="332"/>
      <point x="416" y="279"/>
      <point x="412" y="258" type="curve"/>
      <point x="421" y="258"/>
      <point x="435" y="260"/>
      <point x="454" y="268" type="curve" smooth="yes"/>
      <point x="485" y="281"/>
      <point x="511" y="302"/>
      <point x="519" y="325" type="curve"/>
      <point x="531" y="354"/>
      <point x="536" y="391"/>
      <point x="533" y="427" type="curve" smooth="yes"/>
      <point x="530" y="462"/>
      <point x="522" y="496"/>
      <point x="506" y="520" type="curve" smooth="yes"/>
      <point x="483" y="553"/>
      <point x="452" y="580"/>
      <point x="413" y="594" type="curve" smooth="yes"/>
      <point x="374" y="608"/>
      <point x="329" y="610"/>
      <point x="284" y="601" type="curve" smooth="yes"/>
      <point x="175" y="578"/>
      <point x="98" y="494"/>
      <point x="79" y="374" type="curve" smooth="yes"/>
      <point x="62" y="267"/>
      <point x="93" y="186"/>
      <point x="173" y="138" type="curve" smooth="yes"/>
      <point x="224" y="107"/>
      <point x="288" y="94"/>
      <point x="352" y="98" type="curve" smooth="yes"/>
      <point x="416" y="101"/>
      <point x="480" y="121"/>
      <point x="529" y="157" type="curve" smooth="yes"/>
      <point x="567" y="185" type="line"/>
      <point x="588" y="157" type="line"/>
      <point x="577" y="148"/>
      <point x="568" y="142"/>
      <point x="562" y="137" type="curve"/>
      <point x="558" y="134"/>
      <point x="554" y="131"/>
      <point x="550" y="128" type="curve" smooth="yes"/>
      <point x="495" y="88"/>
      <point x="425" y="66"/>
      <point x="354" y="62" type="curve" smooth="yes"/>
      <point x="282" y="58"/>
      <point x="210" y="73"/>
      <point x="154" y="108" type="curve" smooth="yes"/>
      <point x="63" y="164"/>
      <point x="25" y="259"/>
      <point x="44" y="380" type="curve" smooth="yes"/>
      <point x="56" y="459"/>
      <point x="91" y="518"/>
      <point x="134" y="560" type="curve" smooth="yes"/>
      <point x="177" y="602"/>
      <point x="229" y="625"/>
      <point x="277" y="636" type="curve" smooth="yes"/>
      <point x="329" y="647"/>
      <point x="382" y="643"/>
      <point x="427" y="626" type="curve" smooth="yes"/>
      <point x="471" y="609"/>
      <point x="509" y="579"/>
      <point x="536" y="539" type="curve" smooth="yes"/>
      <point x="555" y="511"/>
      <point x="565" y="471"/>
      <point x="569" y="431" type="curve" smooth="yes"/>
      <point x="572" y="390"/>
      <point x="565" y="347"/>
      <point x="552" y="312" type="curve" smooth="yes"/>
      <point x="541" y="284"/>
      <point x="518" y="262"/>
      <point x="492" y="247" type="curve" smooth="yes"/>
      <point x="466" y="231"/>
      <point x="436" y="223"/>
      <point x="413" y="223" type="curve" smooth="yes"/>
      <point x="405" y="223"/>
      <point x="399" y="224"/>
      <point x="396" y="225" type="curve"/>
    </contour>
    <contour>
      <point x="364" y="448"/>
      <point x="369" y="442"/>
      <point x="373" y="434" type="curve"/>
      <point x="377" y="425"/>
      <point x="377" y="411"/>
      <point x="374" y="392" type="curve" smooth="yes"/>
      <point x="369" y="361"/>
      <point x="363" y="338"/>
      <point x="358" y="322" type="curve"/>
      <point x="346" y="289"/>
      <point x="330" y="275"/>
      <point x="310" y="272" type="curve"/>
      <point x="299" y="271"/>
      <point x="287" y="270"/>
      <point x="272" y="270" type="curve" smooth="yes"/>
      <point x="215" y="270"/>
      <point x="193" y="293"/>
      <point x="201" y="362" type="curve" smooth="yes"/>
      <point x="210" y="434"/>
      <point x="240" y="465"/>
      <point x="297" y="465" type="curve" smooth="yes"/>
      <point x="325" y="465"/>
      <point x="346" y="461"/>
      <point x="359" y="452" type="curve"/>
    </contour>
    <contour>
      <point x="340" y="406"/>
      <point x="341" y="412"/>
      <point x="341" y="415" type="curve"/>
      <point x="340" y="418"/>
      <point x="340" y="421"/>
      <point x="339" y="422" type="curve"/>
      <point x="337" y="423"/>
      <point x="333" y="425"/>
      <point x="326" y="427" type="curve"/>
      <point x="319" y="428"/>
      <point x="309" y="429"/>
      <point x="297" y="429" type="curve" smooth="yes"/>
      <point x="282" y="429"/>
      <point x="270" y="427"/>
      <point x="259" y="418" type="curve" smooth="yes"/>
      <point x="248" y="409"/>
      <point x="240" y="391"/>
      <point x="236" y="358" type="curve"/>
      <point x="235" y="345"/>
      <point x="235" y="334"/>
      <point x="236" y="327" type="curve" smooth="yes"/>
      <point x="237" y="320"/>
      <point x="238" y="315"/>
      <point x="240" y="312" type="curve"/>
      <point x="244" y="308"/>
      <point x="255" y="306"/>
      <point x="272" y="306" type="curve" smooth="yes"/>
      <point x="283" y="306"/>
      <point x="292" y="306"/>
      <point x="299" y="307" type="curve"/>
      <point x="306" y="307"/>
      <point x="310" y="308"/>
      <point x="313" y="311" type="curve" smooth="yes"/>
      <point x="316" y="314"/>
      <point x="320" y="322"/>
      <point x="325" y="335" type="curve"/>
      <point x="329" y="347"/>
      <point x="334" y="368"/>
      <point x="339" y="398" type="curve"/>
    </contour>
    <contour>
      <point x="565" y="110"/>
      <point x="569" y="113"/>
      <point x="577" y="119" type="curve" smooth="yes"/>
      <point x="584" y="124"/>
      <point x="593" y="131"/>
      <point x="602" y="138" type="curve"/>
      <point x="623" y="108" type="line"/>
      <point x="585" y="81" type="line" smooth="yes"/>
      <point x="513" y="29"/>
      <point x="424" y="2"/>
      <point x="333" y="2" type="curve" smooth="yes"/>
      <point x="257" y="2"/>
      <point x="184" y="21"/>
      <point x="123" y="58" type="curve" smooth="yes"/>
      <point x="16" y="122"/>
      <point x="-38" y="237"/>
      <point x="-14" y="389" type="curve" smooth="yes"/>
      <point x="-1" y="472"/>
      <point x="33" y="541"/>
      <point x="87" y="596" type="curve" smooth="yes"/>
      <point x="135" y="647"/>
      <point x="197" y="678"/>
      <point x="265" y="693" type="curve" smooth="yes"/>
      <point x="329" y="706"/>
      <point x="393" y="702"/>
      <point x="449" y="681" type="curve" smooth="yes"/>
      <point x="505" y="660"/>
      <point x="553" y="622"/>
      <point x="586" y="571" type="curve" smooth="yes"/>
      <point x="609" y="535"/>
      <point x="624" y="485"/>
      <point x="628" y="433" type="curve" smooth="yes"/>
      <point x="631" y="382"/>
      <point x="624" y="331"/>
      <point x="607" y="290" type="curve" smooth="yes"/>
      <point x="591" y="249"/>
      <point x="555" y="213"/>
      <point x="508" y="188" type="curve" smooth="yes"/>
      <point x="463" y="165"/>
      <point x="416" y="157"/>
      <point x="380" y="168" type="curve"/>
      <point x="353" y="175"/>
      <point x="334" y="191"/>
      <point x="323" y="215" type="curve"/>
      <point x="304" y="211"/>
      <point x="287" y="211"/>
      <point x="272" y="211" type="curve" smooth="yes"/>
      <point x="180" y="211"/>
      <point x="130" y="265"/>
      <point x="143" y="370" type="curve" smooth="yes"/>
      <point x="155" y="466"/>
      <point x="205" y="524"/>
      <point x="297" y="524" type="curve" smooth="yes"/>
      <point x="316" y="524"/>
      <point x="336" y="523"/>
      <point x="359" y="516" type="curve"/>
      <point x="360" y="527" type="line"/>
      <point x="395" y="521" type="line"/>
      <point x="394" y="513"/>
      <point x="392" y="504"/>
      <point x="391" y="494" type="curve"/>
      <point x="389" y="483"/>
      <point x="387" y="472"/>
      <point x="385" y="460" type="curve"/>
      <point x="383" y="462"/>
      <point x="381" y="464"/>
      <point x="379" y="466" type="curve" smooth="yes"/>
      <point x="377" y="468"/>
      <point x="375" y="470"/>
      <point x="372" y="471" type="curve"/>
      <point x="349" y="486"/>
      <point x="316" y="488"/>
      <point x="297" y="488" type="curve" smooth="yes"/>
      <point x="228" y="488"/>
      <point x="188" y="447"/>
      <point x="178" y="365" type="curve" smooth="yes"/>
      <point x="166" y="282"/>
      <point x="200" y="246"/>
      <point x="272" y="246" type="curve" smooth="yes"/>
      <point x="307" y="246"/>
      <point x="333" y="248"/>
      <point x="354" y="268" type="curve"/>
      <point x="353" y="266"/>
      <point x="353" y="263"/>
      <point x="353" y="260" type="curve"/>
      <point x="348" y="229"/>
      <point x="362" y="209"/>
      <point x="390" y="202" type="curve" smooth="yes"/>
      <point x="417" y="195"/>
      <point x="455" y="201"/>
      <point x="492" y="220" type="curve" smooth="yes"/>
      <point x="531" y="240"/>
      <point x="561" y="270"/>
      <point x="574" y="303" type="curve" smooth="yes"/>
      <point x="589" y="340"/>
      <point x="595" y="385"/>
      <point x="592" y="430" type="curve" smooth="yes"/>
      <point x="585" y="526"/>
      <point x="545" y="577"/>
      <point x="504" y="610" type="curve" smooth="yes"/>
      <point x="463" y="642"/>
      <point x="413" y="661"/>
      <point x="357" y="665" type="curve" smooth="yes"/>
      <point x="329" y="667"/>
      <point x="301" y="665"/>
      <point x="272" y="659" type="curve" smooth="yes"/>
      <point x="210" y="646"/>
      <point x="157" y="617"/>
      <point x="112" y="572" type="curve" smooth="yes"/>
      <point x="64" y="523"/>
      <point x="33" y="459"/>
      <point x="21" y="384" type="curve" smooth="yes"/>
      <point x="0" y="253"/>
      <point x="42" y="149"/>
      <point x="142" y="88" type="curve" smooth="yes"/>
      <point x="195" y="55"/>
      <point x="261" y="38"/>
      <point x="333" y="38" type="curve" smooth="yes"/>
      <point x="336" y="38"/>
      <point x="340" y="38"/>
      <point x="344" y="38" type="curve" smooth="yes"/>
      <point x="347" y="38"/>
      <point x="351" y="38"/>
      <point x="355" y="39" type="curve"/>
      <point x="434" y="43"/>
      <point x="507" y="68"/>
      <point x="564" y="109" type="curve"/>
    </contour>
  </outline>
</glyph>
<glyph name="R" format="1">
  <advance width="417"/>
  <unicode hex="0052"/>
  <outline>
    <contour>
      <point x="247" y="0" type="line"/>
      <point x="247" y="218" type="line" smooth="yes"/>
      <point x="247" y="283"/>
      <point x="216" y="315"/>
      <point x="153" y="315" type="curve" smooth="yes"/>
      <point x="106" y="315" type="line"/>
      <point x="94" y="315" type="line"/>
      <point x="94" y="0" type="line"/>
      <point x="59" y="0" type="line"/>
      <point x="59" y="351" type="line"/>
      <point x="141" y="351" type="line"/>
      <point x="153" y="351" type="line" smooth="yes"/>
      <point x="236" y="351"/>
      <point x="283" y="303"/>
      <point x="283" y="218" type="curve" smooth="yes"/>
      <point x="283" y="0" type="line"/>
    </contour>
    <contour>
      <point x="35" y="0" type="line"/>
      <point x="0" y="0" type="line"/>
      <point x="0" y="678" type="line"/>
      <point x="35" y="678" type="line"/>
    </contour>
    <contour>
      <point x="141" y="375" type="line"/>
      <point x="59" y="375" type="line"/>
      <point x="59" y="678" type="line"/>
      <point x="153" y="678" type="line" smooth="yes"/>
      <point x="244" y="678"/>
      <point x="281" y="634"/>
      <point x="281" y="527" type="curve" smooth="yes"/>
      <point x="281" y="419"/>
      <point x="244" y="375"/>
      <point x="153" y="375" type="curve" smooth="yes"/>
    </contour>
    <contour>
      <point x="106" y="410" type="line"/>
      <point x="153" y="410" type="line" smooth="yes"/>
      <point x="178" y="410"/>
      <point x="196" y="413"/>
      <point x="206" y="419" type="curve"/>
      <point x="215" y="425"/>
      <point x="221" y="430"/>
      <point x="224" y="433" type="curve"/>
      <point x="239" y="452"/>
      <point x="246" y="483"/>
      <point x="246" y="527" type="curve" smooth="yes"/>
      <point x="246" y="576"/>
      <point x="238" y="605"/>
      <point x="223" y="622" type="curve"/>
      <point x="207" y="638"/>
      <point x="184" y="642"/>
      <point x="153" y="642" type="curve" smooth="yes"/>
      <point x="94" y="642" type="line"/>
      <point x="94" y="410" type="line"/>
    </contour>
    <contour>
      <point x="322" y="327"/>
      <point x="342" y="279"/>
      <point x="342" y="218" type="curve" smooth="yes"/>
      <point x="342" y="0" type="line"/>
      <point x="306" y="0" type="line"/>
      <point x="306" y="218" type="line" smooth="yes"/>
      <point x="306" y="267"/>
      <point x="292" y="306"/>
      <point x="263" y="335" type="curve"/>
      <point x="251" y="346"/>
      <point x="237" y="355"/>
      <point x="221" y="362" type="curve"/>
      <point x="277" y="383"/>
      <point x="305" y="438"/>
      <point x="305" y="527" type="curve" smooth="yes"/>
      <point x="305" y="646"/>
      <point x="258" y="701"/>
      <point x="153" y="701" type="curve" smooth="yes"/>
      <point x="47" y="701" type="line"/>
      <point x="35" y="701" type="line"/>
      <point x="0" y="701" type="line"/>
      <point x="0" y="737" type="line"/>
      <point x="153" y="737" type="line" smooth="yes"/>
      <point x="280" y="737"/>
      <point x="340" y="664"/>
      <point x="340" y="527" type="curve" smooth="yes"/>
      <point x="340" y="459"/>
      <point x="325" y="407"/>
      <point x="296" y="372" type="curve"/>
      <point x="295" y="371"/>
      <point x="293" y="369"/>
      <point x="292" y="367" type="curve"/>
      <point x="290" y="365"/>
      <point x="288" y="363"/>
      <point x="286" y="362" type="curve"/>
    </contour>
  </outline>
</glyph>
<glyph name="Y" format="1">
  <advance width="518"/>
  <unicode hex="0059"/>
  <outline>
    <contour>
      <point x="204" y="0" type="line"/>
      <point x="170" y="0" type="line"/>
      <point x="170" y="356" type="line"/>
      <point x="-40" y="737" type="line"/>
      <point x="0" y="737" type="line"/>
      <point x="204" y="365" type="line"/>
    </contour>
    <contour>
      <point x="216" y="393" type="line"/>
      <point x="27" y="737" type="line"/>
      <point x="68" y="737" type="line"/>
      <point x="217" y="466" type="line"/>
      <point x="367" y="737" type="line"/>
      <point x="405" y="737" type="line"/>
    </contour>
    <contour>
      <point x="432" y="737" type="line"/>
      <point x="475" y="737" type="line"/>
      <point x="264" y="356" type="line"/>
      <point x="264" y="0" type="line"/>
      <point x="227" y="0" type="line"/>
      <point x="227" y="365" type="line"/>
    </contour>
  </outline>
</glyph>
<glyph name="e" format="1">
  <advance width="372"/>
  <unicode hex="0065"/>
  <outline>
    <contour>
      <point x="35" y="35" type="line"/>
      <point x="305" y="35" type="line"/>
      <point x="305" y="0" type="line"/>
      <point x="0" y="0" type="line"/>
      <point x="0" y="737" type="line"/>
      <point x="305" y="737" type="line"/>
      <point x="305" y="701" type="line"/>
      <point x="35" y="701" type="line"/>
      <point x="35" y="380" type="line"/>
      <point x="35" y="357" type="line"/>
    </contour>
    <contour>
      <point x="305" y="321" type="line"/>
      <point x="94" y="321" type="line"/>
      <point x="94" y="94" type="line"/>
      <point x="305" y="94" type="line"/>
      <point x="305" y="59" type="line"/>
      <point x="59" y="59" type="line"/>
      <point x="59" y="357" type="line"/>
      <point x="305" y="357" type="line"/>
    </contour>
    <contour>
      <point x="305" y="642" type="line"/>
      <point x="94" y="642" type="line"/>
      <point x="94" y="416" type="line"/>
      <point x="305" y="416" type="line"/>
      <point x="305" y="380" type="line"/>
      <point x="59" y="380" type="line"/>
      <point x="59" y="678" type="line"/>
      <point x="305" y="678" type="line"/>
    </contour>
  </outline>
</glyph>
<glyph name="j" format="1">
  <advance width="405"/>
  <unicode hex="006A"/>
  <outline>
    <contour>
      <point x="94" y="244" type="line"/>
      <point x="94" y="197" type="line" smooth="yes"/>
      <point x="94" y="146"/>
      <point x="105" y="120"/>
      <point x="120" y="108" type="curve"/>
      <point x="135" y="95"/>
      <point x="152" y="95"/>
      <point x="165" y="95" type="curve" smooth="yes"/>
      <point x="182" y="95"/>
      <point x="194" y="97"/>
      <point x="201" y="102" type="curve"/>
      <point x="208" y="106"/>
      <point x="214" y="110"/>
      <point x="217" y="114" type="curve" smooth="yes"/>
      <point x="230" y="131"/>
      <point x="236" y="158"/>
      <point x="236" y="197" type="curve" smooth="yes"/>
      <point x="236" y="738" type="line"/>
      <point x="271" y="738" type="line"/>
      <point x="271" y="197" type="line" smooth="yes"/>
      <point x="271" y="102"/>
      <point x="237" y="60"/>
      <point x="165" y="60" type="curve" smooth="yes"/>
      <point x="94" y="60"/>
      <point x="59" y="102"/>
      <point x="59" y="197" type="curve" smooth="yes"/>
      <point x="59" y="244" type="line"/>
    </contour>
    <contour>
      <point x="330" y="738" type="line"/>
      <point x="330" y="197" type="line" smooth="yes"/>
      <point x="330" y="136"/>
      <point x="317" y="88"/>
      <point x="290" y="55" type="curve"/>
      <point x="271" y="30"/>
      <point x="233" y="1"/>
      <point x="165" y="1" type="curve" smooth="yes"/>
      <point x="98" y="1"/>
      <point x="60" y="30"/>
      <point x="40" y="55" type="curve" smooth="yes"/>
      <point x="13" y="88"/>
      <point x="0" y="136"/>
      <point x="0" y="197" type="curve" smooth="yes"/>
      <point x="0" y="244" type="line"/>
      <point x="35" y="244" type="line"/>
      <point x="35" y="197" type="line" smooth="yes"/>
      <point x="35" y="90"/>
      <point x="80" y="36"/>
      <point x="165" y="36" type="curve" smooth="yes"/>
      <point x="252" y="36"/>
      <point x="295" y="92"/>
      <point x="295" y="197" type="curve" smooth="yes"/>
      <point x="295" y="738" type="line"/>
    </contour>
  </outline>
</glyph>
<glyph name="k" format="1">
  <advance width="457"/>
  <unicode hex="006B"/>
  <outline>
    <contour>
      <point x="36" y="1" type="line"/>
      <point x="1" y="1" type="line"/>
      <point x="1" y="268" type="line"/>
      <point x="0" y="268" type="line"/>
      <point x="1" y="270" type="line"/>
      <point x="1" y="738" type="line"/>
      <point x="36" y="738" type="line"/>
    </contour>
    <contour>
      <point x="60" y="738" type="line"/>
      <point x="95" y="738" type="line"/>
      <point x="95" y="416" type="line"/>
      <point x="304" y="738" type="line"/>
      <point x="345" y="738" type="line"/>
      <point x="60" y="297" type="line"/>
    </contour>
    <contour>
      <point x="137" y="372" type="line"/>
      <point x="342" y="1" type="line"/>
      <point x="302" y="1" type="line"/>
      <point x="134" y="303" type="line"/>
      <point x="95" y="242" type="line"/>
      <point x="95" y="1" type="line"/>
      <point x="60" y="1" type="line"/>
      <point x="60" y="253" type="line"/>
    </contour>
    <contour>
      <point x="373" y="738" type="line"/>
      <point x="417" y="738" type="line"/>
      <point x="193" y="393" type="line"/>
      <point x="410" y="1" type="line"/>
      <point x="370" y="1" type="line"/>
      <point x="151" y="395" type="line"/>
    </contour>
  </outline>
</glyph>
<glyph name="bar" format="1">
  <advance width="202"/>
  <unicode hex="007C"/>
  <outline>
    <contour>
      <point x="65" y="738" type="line"/>
      <point x="65" y="1" type="line"/>
      <point x="30" y="1" type="line"/>
      <point x="30" y="738" type="line"/>
    </contour>
    <contour>
      <point x="89" y="738" type="line"/>
      <point x="124" y="738" type="line"/>
      <point x="124" y="1" type="line"/>
      <point x="89" y="1" type="line"/>
    </contour>
  </outline>
</glyph>
<glyph name="endash" format="1">
  <advance width="376"/>
  <unicode hex="2013"/>
  <outline>
    <contour>
      <point x="0" y="382" type="line"/>
      <point x="0" y="417" type="line"/>
      <point x="302" y="417" type="line"/>
      <point x="302" y="382" type="line"/>
    </contour>
    <contour>
      <point x="302" y="323" type="line"/>
      <point x="0" y="323" type="line"/>
      <point x="0" y="358" type="line"/>
      <point x="302" y="358" type="line"/>
    </contour>
  </outline>
</glyph>
<glyph name="quotedblright" format="1">
  <advance width="283"/>
  <unicode hex="201D"/>
  <outline>
    <contour>
      <point x="0" y="588" type="line"/>
      <point x="0" y="739" type="line"/>
      <point x="94" y="739" type="line"/>
      <point x="94" y="588" type="line"/>
    </contour>
    <contour>
      <point x="35" y="703" type="line"/>
      <point x="35" y="623" type="line"/>
      <point x="59" y="623" type="line"/>
      <point x="59" y="703" type="line"/>
    </contour>
    <contour>
      <point x="139" y="739" type="line"/>
      <point x="233" y="739" type="line"/>
      <point x="233" y="588" type="line"/>
      <point x="139" y="588" type="line"/>
    </contour>
    <contour>
      <point x="198" y="623" type="line"/>
      <point x="198" y="703" type="line"/>
      <point x="174" y="703" type="line"/>
      <point x="174" y="623" type="line"/>
    </contour>
  </outline>
</glyph>
